<svg xmlns="http://www.w3.org/2000/svg" viewBox="0 0 405 405">
  <path fill="#000" fill-rule="evenodd" d="m91.542 85 47.061.383a14.927 14.927 0 0 1 11.677 5.78L318.417 307.95c3.81 4.909.31 12.051-5.895 12.051h-49.27a14.938 14.938 0 0 1-11.87-5.87l-46.892-64.218-51.899 64.418a14.935 14.935 0 0 1-11.714 5.67H91.48c-6.24 0-9.727-7.208-5.857-12.106L167.95 203.56l-82.4-106.55c-3.77-4.94-.218-12.058 5.994-12.007L91.542 85Zm220.89 0c6.293-.048 9.84 7.188 5.937 12.107L244.653 190c-5.259-4.126-46.065-38.197-6.697-83.816 0 0 2.943-3.432 6.043-7.058l.736-.86c2.699-3.158 5.35-6.268 6.13-7.209 3.893-4.698 7.098-5.636 11.638-5.67l49.93-.387Z"/>
</svg>
