<?xml version="1.0" encoding="UTF-8"?>
<svg width="405px" height="405px" viewBox="0 0 405 405" version="1.1" xmlns="http://www.w3.org/2000/svg" xmlns:xlink="http://www.w3.org/1999/xlink">
    <title>XState</title>
    <g id="Logos" stroke="none" stroke-width="1" fill="none" fill-rule="evenodd">
        <g id="black" fill="#000000" transform="translate(84.000000, 84.999762)">
            <path d="M7.54183776,0.000237802461 L54.6030212,0.382856064 C59.1745992,0.419417801 63.4774125,2.5495805 66.2795972,6.16349412 L234.416778,222.949486 C238.227428,227.85803 234.726867,235.000238 228.52164,235.000238 L179.251934,235.000238 C174.597152,235.000238 170.207669,232.828621 167.382414,229.129977 L120.490056,164.912156 L68.5914834,229.329904 C65.7582223,232.912017 61.4428765,235.000238 56.8770077,235.000238 L7.47981995,235.000238 C1.24013891,235.000238 -2.24664033,227.792537 1.62258209,222.894334 L83.9512283,118.560194 L1.55022797,12.0096254 C-2.21907686,7.07005811 1.33316563,-0.0480203567 7.54528319,0.00368481383 L7.54183776,0.000237802461 Z M228.432909,0.000237802461 C234.725177,-0.0477850883 238.272357,7.1882283 234.369077,12.1076143 L160.652729,105.000238 C155.394191,100.873745 114.587791,66.8034639 153.955958,21.1845191 C153.955958,21.1845191 156.898842,17.7519233 159.999076,14.1264111 L160.734913,13.2657241 C163.433721,10.1083355 166.085347,6.99834386 166.86548,6.05749348 C170.758389,1.35873872 173.963298,0.42105618 178.50272,0.386582557 L228.432909,0.000237802461 Z" id="x"></path>
        </g>
    </g>
</svg>